<svg id="visual" viewBox="0 0 1440 800" width="1440" height="800" xmlns="http://www.w3.org/2000/svg" xmlns:xlink="http://www.w3.org/1999/xlink" version="1.1"><rect x="0" y="0" width="1440" height="800" fill="#ffffff"></rect><defs><linearGradient id="grad1_0" x1="44.4%" y1="0%" x2="100%" y2="100%"><stop offset="13.999999999999998%" stop-color="#ffffff" stop-opacity="1"></stop><stop offset="86%" stop-color="#ffffff" stop-opacity="1"></stop></linearGradient></defs><defs><linearGradient id="grad2_0" x1="0%" y1="0%" x2="55.6%" y2="100%"><stop offset="13.999999999999998%" stop-color="#ffffff" stop-opacity="1"></stop><stop offset="86%" stop-color="#ffffff" stop-opacity="1"></stop></linearGradient></defs><g transform="translate(1440, 0)"><path d="M0 360C-39.9 359.6 -79.9 359.2 -111.2 342.4C-142.6 325.6 -165.4 292.3 -195.7 269.4C-226 246.5 -263.8 234 -286.4 208.1C-309 182.2 -316.5 142.9 -326.2 106C-336 69.1 -348 34.5 -360 0L0 0Z" fill="#315dfc"></path></g><g transform="translate(0, 800)"><path d="M0 -360C37.7 -354.3 75.5 -348.7 108.8 -334.8C142 -320.9 170.9 -298.7 202.2 -278.3C233.5 -257.9 267.4 -239.4 291.2 -211.6C315.1 -183.8 328.8 -146.8 338.6 -110C348.4 -73.2 354.2 -36.6 360 0L0 0Z" fill="#315dfc"></path></g></svg>